<svg width="29" height="29" viewBox="0 0 29 29" fill="none" xmlns="http://www.w3.org/2000/svg">
<path d="M14.1767 3.21141C17.9222 3.21141 18.3503 3.21142 19.8485 3.31764C21.2397 3.42386 21.9888 3.6363 22.4169 3.74252C23.059 3.95496 23.487 4.27363 24.0221 4.80473C24.5572 5.33584 24.7712 5.76072 25.0923 6.39805C25.3063 6.92916 25.5203 7.5665 25.5203 8.94737C25.6273 10.4345 25.6274 10.8594 25.6274 14.5771C25.6274 18.2948 25.6273 18.7197 25.5203 20.2068C25.4133 21.5877 25.1993 22.3313 25.0923 22.7561C24.8782 23.3935 24.5572 23.8184 24.0221 24.3495C23.487 24.8806 23.059 25.093 22.4169 25.4117C21.8818 25.6241 21.2397 25.8365 19.8485 25.8365C18.3503 25.9428 17.9222 25.9428 14.1767 25.9428C10.4311 25.9428 10.003 25.9428 8.50482 25.8365C7.11362 25.7303 6.36451 25.5179 5.93645 25.4117C5.29436 25.1992 4.86629 24.8806 4.33122 24.3495C3.79614 23.8184 3.58211 23.3935 3.26106 22.7561C3.04703 22.225 2.83299 21.5877 2.83299 20.2068C2.72597 18.7197 2.72598 18.2948 2.72598 14.5771C2.72598 10.8594 2.72597 10.4345 2.83299 8.94737C2.94 7.5665 3.15404 6.82294 3.26106 6.39805C3.47509 5.76072 3.79614 5.33584 4.33122 4.80473C4.86629 4.27363 5.29436 4.06118 5.93645 3.74252C6.47153 3.53008 7.11362 3.31764 8.50482 3.31764C10.1101 3.21142 10.5381 3.21141 14.1767 3.21141ZM14.1767 0.662109C10.4311 0.662109 9.89604 0.662116 8.39782 0.768337C6.8996 0.874558 5.93644 1.08699 4.9733 1.40566C4.01016 1.72432 3.26106 2.25543 2.51195 2.99897C1.76284 3.74252 1.22776 4.48608 0.906716 5.44207C0.585669 6.29184 0.371631 7.35405 0.264615 8.84114C0.157599 10.3282 0.157593 10.7531 0.157593 14.5771C0.157593 18.2948 0.157599 18.8259 0.264615 20.313C0.371631 21.8001 0.585669 22.7561 0.906716 23.7121C1.22776 24.6681 1.76284 25.4117 2.51195 26.1552C3.26106 26.8988 4.01016 27.4299 4.9733 27.7485C5.82943 28.0672 6.8996 28.2796 8.39782 28.3859C9.89604 28.4921 10.3241 28.4921 14.1767 28.4921C17.9222 28.4921 18.4573 28.4921 19.9555 28.3859C21.4537 28.2796 22.4169 28.0672 23.38 27.7485C24.3432 27.4299 25.0923 26.8988 25.8414 26.1552C26.5905 25.4117 27.1256 24.6681 27.4466 23.7121C27.7676 22.8624 27.9817 21.8001 28.0887 20.313C28.1957 18.8259 28.1957 18.4011 28.1957 14.5771C28.1957 10.8594 28.1957 10.3282 28.0887 8.84114C27.9817 7.35405 27.7676 6.39806 27.4466 5.44207C27.1256 4.48608 26.5905 3.74252 25.8414 2.99897C25.0923 2.25543 24.3432 1.72432 23.38 1.40566C22.5239 1.08699 21.4537 0.874558 19.9555 0.768337C18.4573 0.662116 18.0292 0.662109 14.1767 0.662109Z" fill="white"/>
<path d="M14.1766 7.35413C10.2171 7.35413 7.00659 10.5408 7.00659 14.4709C7.00659 18.4011 10.2171 21.5878 14.1766 21.5878C18.1362 21.5878 21.3467 18.4011 21.3467 14.4709C21.3467 10.5408 18.1362 7.35413 14.1766 7.35413ZM14.1766 19.0385C11.6083 19.0385 9.57496 17.0203 9.57496 14.4709C9.57496 11.9216 11.6083 9.90343 14.1766 9.90343C16.745 9.90343 18.7783 11.9216 18.7783 14.4709C18.8853 17.0203 16.745 19.0385 14.1766 19.0385Z" fill="white"/>
<path d="M23.2731 7.14156C23.2731 8.09755 22.5239 8.84109 21.5608 8.84109C20.5976 8.84109 19.8485 8.09755 19.8485 7.14156C19.8485 6.18557 20.5976 5.44202 21.5608 5.44202C22.5239 5.44202 23.2731 6.18557 23.2731 7.14156Z" fill="white"/>
</svg>
