<svg width="37" height="26" viewBox="0 0 37 26" fill="none" xmlns="http://www.w3.org/2000/svg">
<path d="M35.8716 4.28472C35.4902 2.77047 34.2507 1.54015 32.6297 1.06694C29.7693 0.309817 18.5182 0.309814 18.5182 0.309814C18.5182 0.309814 7.17173 0.309817 4.40662 1.06694C2.88105 1.4455 1.6415 2.67583 1.16475 4.28472C0.401966 7.12394 0.401978 12.9917 0.401978 12.9917C0.401978 12.9917 0.401966 18.8594 1.16475 21.6986C1.54615 23.2128 2.7857 24.4432 4.40662 24.9164C7.26708 25.6735 18.5182 25.6735 18.5182 25.6735C18.5182 25.6735 29.8646 25.6735 32.6297 24.9164C34.1553 24.5378 35.3949 23.3075 35.8716 21.6986C36.6344 18.8594 36.6344 12.9917 36.6344 12.9917C36.6344 12.9917 36.6344 7.12394 35.8716 4.28472Z" fill="white"/>
<path d="M14.7996 18.3861V7.69177L24.3344 12.9916L14.7996 18.3861Z" fill="#484848"/>
</svg>
