<svg width="36" height="20" viewBox="0 0 36 20" fill="none" xmlns="http://www.w3.org/2000/svg">
<path d="M33.6499 15.9205C32.6118 14.6846 31.3901 13.6299 30.2343 12.5098C29.1915 11.5002 29.1257 10.9146 29.964 9.74937C30.8789 8.47763 31.8628 7.25466 32.7859 5.98866C33.6477 4.80551 34.5286 3.62558 34.982 2.20895C35.2697 1.30769 35.0153 0.909601 34.0842 0.7518C33.9237 0.724184 33.7579 0.72275 33.5946 0.72275L28.0703 0.716295C27.3899 0.706253 27.0138 1.0007 26.7732 1.59927C26.4483 2.40836 26.1134 3.21673 25.7264 3.99749C24.8484 5.76774 23.8678 7.47881 22.4929 8.92772C22.1898 9.24727 21.8545 9.6511 21.3479 9.48469C20.7141 9.25516 20.5273 8.21869 20.5378 7.8683L20.5324 1.53937C20.4095 0.635242 20.2076 0.23213 19.3032 0.0563965L13.5647 0.0574725C12.7987 0.0574725 12.4146 0.351198 12.0055 0.826755C11.7696 1.10147 11.6984 1.27972 12.1833 1.37081C13.1358 1.55013 13.6723 2.16197 13.8147 3.10986C14.043 4.6244 14.0271 6.14503 13.8956 7.66567C13.857 8.10966 13.78 8.55258 13.6026 8.96717C13.3251 9.61882 12.8771 9.75152 12.2885 9.35056C11.7555 8.98761 11.3812 8.47548 11.0148 7.96119C9.63853 6.03098 8.54047 3.94944 7.64511 1.76209C7.3864 1.13017 6.94017 0.747137 6.26558 0.736737C4.60819 0.710556 2.95045 0.706252 1.29306 0.738171C0.295809 0.75682 -0.00155967 1.2374 0.404567 2.13472C2.20973 6.12029 4.21905 9.99503 6.84189 13.5248C8.18854 15.3363 9.73464 16.9354 11.732 18.0687C13.9957 19.3534 16.4325 19.74 18.9989 19.6209C20.2007 19.565 20.5617 19.2548 20.6173 18.0659C20.6549 17.2525 20.7477 16.4437 21.1521 15.7128C21.5488 14.9956 22.1497 14.8589 22.8423 15.3051C23.1888 15.5285 23.4808 15.8129 23.7565 16.1127C24.4329 16.8472 25.0851 17.6039 25.7871 18.3137C26.6677 19.2031 27.7108 19.7285 29.0224 19.6213L34.0997 19.6224C34.9177 19.5693 35.3419 18.5737 34.8722 17.6674C34.5423 17.0326 34.1095 16.4674 33.6499 15.9205Z" fill="white"/>
</svg>
