<svg width="33" height="29" viewBox="0 0 33 29" fill="none" xmlns="http://www.w3.org/2000/svg">
<path d="M0.877126 14.0948L8.40054 16.8619L11.3126 26.0905C11.4989 26.6816 12.2323 26.9001 12.7192 26.5078L16.9128 23.1389C17.3524 22.7859 17.9786 22.7683 18.438 23.0969L26.0019 28.5085C26.5227 28.8815 27.2605 28.6003 27.3911 27.9802L32.932 1.71526C33.0746 1.03786 32.3992 0.472753 31.7446 0.72222L0.86831 12.4599C0.106347 12.7495 0.112986 13.8126 0.877126 14.0948ZM10.8433 15.3889L25.5468 6.46479C25.8111 6.30487 26.083 6.65698 25.856 6.86441L13.7213 17.9799C13.2948 18.3712 13.0197 18.8948 12.9417 19.4631L12.5284 22.4818C12.4736 22.8849 11.8991 22.9249 11.7862 22.5348L10.1965 17.0301C10.0144 16.4023 10.2797 15.7316 10.8433 15.3889Z" fill="white"/>
</svg>
