<svg width="15" height="15" viewBox="0 0 15 15" fill="none" xmlns="http://www.w3.org/2000/svg">
<path d="M7.5 1C3.91576 1 1 3.91576 1 7.5C1 11.0842 3.91576 14 7.5 14C11.0842 14 14 11.0842 14 7.5C14 3.91576 11.0842 1 7.5 1ZM10.5913 10.8621C10.4857 10.9677 10.347 11.0209 10.2084 11.0209C10.0697 11.0209 9.93095 10.9677 9.82542 10.8621L7.11706 8.15381C7.0152 8.05254 6.95837 7.91488 6.95837 7.77087V4.25C6.95837 3.95047 7.20097 3.70837 7.5 3.70837C7.79903 3.70837 8.04163 3.95047 8.04163 4.25V7.54662L10.5913 10.0962C10.8031 10.308 10.8031 10.6503 10.5913 10.8621Z" fill="white" stroke="#FC3A0B" stroke-width="0.4"/>
</svg>
