<svg width="12" height="11" viewBox="0 0 12 11" fill="none" xmlns="http://www.w3.org/2000/svg">
<path d="M11.9458 4.12563C11.8017 3.70348 11.4081 3.43072 10.9433 3.43072H7.94563L7.00165 0.692295C6.85655 0.271335 6.46384 0 6.00033 0L5.99585 2.23732e-05C5.53045 0.00176844 5.1379 0.276461 4.99582 0.699839L4.07935 3.43072H1.05672C0.590708 3.43072 0.196871 3.7044 0.053406 4.12794C-0.0900822 4.55147 0.0612565 4.99367 0.438971 5.25446L2.8846 6.94309L1.94324 9.67393C1.79755 10.0966 1.94636 10.5394 2.32234 10.8021C2.51117 10.934 2.72792 11 2.9448 11C3.15972 11 3.37475 10.9351 3.56265 10.8054L6.01251 9.11388L8.43328 10.8026C8.80884 11.0646 9.29522 11.0658 9.67232 10.8059C10.0494 10.5459 10.2013 10.1046 10.0594 9.68149L9.14036 6.94309L11.5652 5.25158C11.9406 4.98971 12.09 4.54775 11.9458 4.12563Z" fill="#4D4D4D"/>
</svg>
