<svg width="11" height="16" viewBox="0 0 11 16" fill="none" xmlns="http://www.w3.org/2000/svg">
<path d="M5.5 0C2.46732 0 0 2.49492 0 5.56152C0 9.41592 5.50541 16 5.50541 16C5.50541 16 11 9.22637 11 5.56152C11 2.49492 8.53277 0 5.5 0ZM7.15946 7.18994C6.70189 7.65254 6.10099 7.88389 5.5 7.88389C4.8991 7.88389 4.29802 7.65254 3.84063 7.18994C2.92558 6.26475 2.92558 4.75928 3.84063 3.83398C4.28372 3.38574 4.87313 3.13887 5.5 3.13887C6.12687 3.13887 6.71618 3.38584 7.15946 3.83398C8.07452 4.75928 8.07452 6.26475 7.15946 7.18994Z" fill="white"/>
</svg>
